<?xml version="1.0" encoding="UTF-8"?>
<svg id="Layer_2" data-name="Layer 2" xmlns="http://www.w3.org/2000/svg" viewBox="0 0 1948.1 1286.6">
  <defs>
    <style>
      .cls-1 {
        fill: #1a0a0e;
      }

      .cls-2 {
        stroke: #f7f2f3;
      }

      .cls-2, .cls-3 {
        fill: none;
        stroke-miterlimit: 10;
        stroke-width: 3px;
      }

      .cls-3 {
        stroke: #fff;
        stroke-linecap: round;
      }
    </style>
  </defs>
  <g id="Layer_1-2" data-name="Layer 1">
    <polygon class="cls-1" points="179.72 43.07 179.72 0 0 0 0 42.4 179.72 43.07"/>
    <polygon class="cls-1" points="114.75 503.09 181.79 535.29 171.86 683.6 168.35 767.35 169.09 823.62 176.4 900.49 183.69 936.52 203.83 992.22 220.9 1019.03 247.37 1043.48 277.71 1056.8 302.03 1066.95 184.83 1085.6 44.66 1007.47 33.17 757 114.75 503.09"/>
    <path class="cls-1" d="M182.68,286.53l-.65-15.96-2.05-35.07s38.91,25.01,36.36,20.46-16.86-19.65-16.86-19.65l-8.28-6.22,19.49-8.13s30.26-16.55,33.99-29.65,12.44-17.74,16.51-49.63-11.77-37.3-11.77-37.3c0,0-9.34-5.2-25.86-1.17l-2.64-.39-5.2-12.48s8.72-8.18,3.09-23.73-23.77-21.12-23.77-21.12c0,0-14.73-5.18-30.37-3.89l-164.66-.2.6,237.8,182.08,6.33Z"/>
    <path class="cls-1" d="M57.97,903.17c5.5,13.56-20.17,95.63,188.99,147.06,0,0,29.61,13.9,414.91,51.44l30.24,2.45,2.66-4.22s26.44-4.29,65.56-7.65c39.12-3.36,276.52-21,276.52-21,0,0,246.19-15.21,306.9-11.63l70.14-.21,73.6.61,39.17.74s49.81,3.11,70.42.38c20.6-2.73,93.61-3.42,93.61-3.42l87.05-2.46,43.37,3.73s86.27,4.93,126.67,22.73l-1.2,204.88H0L.6,280.2l182.08,6.33-.65,237.76-33.38,63.44-25.41,50.08-15.31,33-23.83,62.76-14.94,59.49-8.88,54.63-2.96,31.7.65,23.78Z"/>
    <path class="cls-3" d="M736.54,1111.9c-4.31,67.71-39.98,130.39-57.11,142.56-3.62,2.57-8.69,1.05-10.28-3.08-9.86-25.53-33.43-108.44,57.98-145.61,4.42-1.8,9.29,1.36,9.42,6.13.71,26.07,9.22,98.12,79.23,133.13,86.4,43.2,75.96-116.47-88.65-139.26-34.67-4.8-141.12-3.56,316.48-35.56,165.87-11.6,334.85-12.96,481.08-10.15,0,0,138.65,9.08,137.59-21.85-1.07-30.93-35.73-50.13-60.8-35.73-25.07,14.4-18.13,82.97,120,74.02,138.13-8.95-8.53-100.15-107.77-17.17l164.16-4.63c147.88,11.25,168.74,26.12,168.74,26.12"/>
    <path class="cls-3" d="M142.5,78.6c4.72-4.74,39.22-12.82,36.12-.87-.56,2.17-2.1,3.92-4.08,4.98-22.3,11.92-65.99,2.41-92.45,2.64-51.72,9.2-15.61,66.4,1.7,93.7,14.64,22.47,33.07,43.17,51.18,47.95,50.44,4.05,97.15-42.76,89.49-106.87-2.78-23.04-15.43-50.88-41.23-51.69-20.6-.81-45.13,4.91-63.24,15.46-14.54,9.13-15.67,32.13,1.47,39.74,13.52,5.38,28.89,2.02,42.52-1.82,30.12-6.14,79.24-36.37,45.16-66.84-5.5-5.42-12-8.48-19.57-9.81-24.76-9.43-131.39,6.36-72.7,49.15,50.21,36.01,86.56,83.43,38.83,137.03-53.39,39.71,28.88-126.9,70.99-127.46,52.59-12.14,34.67,62.73,17.98,88.44-12.74,20.03-35.41,34.15-59.2,37.15-13.48.56-47,8.69-44,23.86,23.38-6.02,36.43-42.93,60.87-13.85,4.71,4.49,12.63,11.79,13.99,16.49-11.96,4.98-28.03-23.68-39.56-20.28-9.98,1.63-10.82,50.02-.17,40.48,3.67-6.66,3.72-38.72,3.03-45.35,7.08,93.06,4.43,208.63.85,360.82-11.97,243.68-28.86-95.33,72.71-200.29,8.51-8.79,14.49-14.59,19.57-17.59,15.01-8.84,19.09,5.71,14.18,19.01-7.43,20.12-33.3,47.48-57.54,47.21-16.84,3.43-17.3-12.26-19.44-25.16-1.31-7.87-4.08-23.66-2.16-32.83.83-3.96,8.45-4.3,9.72-.46,5.29,15.97,6.27,57.54.5,74.1-9.23,20.04-33.73,69.23-37.22,118.55-7.09,100.2-54.46,443.96,96.9,482.64,40.61,10.38,337.63,43.59,449.41,48.98"/>
    <path class="cls-3" d="M971.62,1075.31s39.98,4.51,48.78-45.89c0,0-26.97,60.46,23.2,40.8,59.2-23.2,28.8-93.6,28.8-93.6,0,0,3.43,91.34,27.32,90.06,23.88-1.28,62.28,43.25,37.48,90.59,0,0,54.13-120.39,30.13-148.39s44.28,52.86,44.28,52.86"/>
    <path class="cls-3" d="M584.36,1093.73s-53.57-12.31-52.94-77.24c0,0-1.83,84.13-27.43,66.13-45.73-32.15-52.8-77.6-25.69-116.05.33-.47.96.2.96.2-.95,16.47-6.56,93.52-27.9,92.38-23.88-1.28-66.01,8.53-41.21,55.87,0,0-57.82-101.01-25.67-119.06,18.07-10.14-48.3,68.63-48.3,68.63"/>
    <path class="cls-3" d="M1302.78,1058.82s24.01-1.4,19.21,27.4c-4.8,28.8,4.8-56.8,23.2-56.8,2,0-34.4,37.6-52.8,44.8s28.53-12.98,7.73-14.63"/>
    <path class="cls-3" d="M1412.73,1057.11s-34.8,26.86-34,39.66c.8,12.8-5.6-31.28,7.2-37.84s-20.8-42.16-20.8-42.16c0,0,19.6,39.52,37.6,41.16"/>
    <path class="cls-2" d="M168.71,794.34s-140.46-101.27-84.98-119.3c61.28-19.91-4.88,40.27,58.3,98.7,0,0-40.95-55.14-81.54-37.44s1.03,45.21,81.54,37.44"/>
  </g>
</svg>