<?xml version="1.0" encoding="UTF-8"?>
<svg id="Layer_2" data-name="Layer 2" xmlns="http://www.w3.org/2000/svg" viewBox="0 0 2419.75 1286.6">
  <defs>
    <style>
      .cls-1 {
        fill: #1a0a0e;
      }

      .cls-2 {
        stroke: #f7f2f3;
      }

      .cls-2, .cls-3 {
        fill: none;
        stroke-miterlimit: 10;
        stroke-width: 3px;
      }

      .cls-3 {
        stroke: #fff;
        stroke-linecap: round;
      }
    </style>
  </defs>
  <g id="Layer_1-2" data-name="Layer 1">
    <path class="cls-1" d="M1934.76,1058.99s78.47-.36,161.79,7.95l109.62,11.9s162.98,22.45,205.91,53.47l6.17,6.13-3.83,14.17-99.19,5.36-392.94-40.98,12.46-58.01Z"/>
    <polygon class="cls-1" points="228.38 503.09 295.42 535.29 285.49 683.6 281.98 767.35 282.73 823.62 290.03 900.49 297.32 936.52 317.46 992.22 334.53 1019.03 361 1043.48 391.34 1056.8 415.66 1066.95 298.47 1085.6 158.3 1007.47 146.81 757 228.38 503.09"/>
    <path class="cls-1" d="M1934.76,1058.99l-43.37-3.73-87.05,2.46s-73.01.7-93.61,3.42c-20.6,2.73-70.42-.38-70.42-.38l-39.17-.74-73.6-.61-70.14.21c-60.72-3.58-306.9,11.63-306.9,11.63,0,0-237.4,17.63-276.52,21-39.12,3.36-65.56,7.65-65.56,7.65l-2.66,4.22-30.24-2.45c-385.31-37.54-414.91-51.44-414.91-51.44-209.16-51.44-183.49-133.5-188.99-147.06l-.65-23.78,2.96-31.7,8.88-54.63,14.94-59.49,23.83-62.76,15.31-33,25.41-50.08,33.38-63.44.65-237.76-.65-15.96-2.05-35.07s38.91,25.01,36.36,20.46-16.86-19.65-16.86-19.65l-8.28-6.22,19.49-8.13s30.26-16.55,33.99-29.65c3.73-13.1,12.44-17.74,16.51-49.63,4.07-31.89-11.77-37.3-11.77-37.3,0,0-9.34-5.2-25.86-1.17l-2.64-.39-5.2-12.48s8.72-8.18,3.09-23.73c-5.63-15.55-23.77-21.12-23.77-21.12,0,0-6.44-2.26-15.32-3.42V0H0v1286.6h2418.25v-150.45c-40.4-17.8-483.49-77.16-483.49-77.16Z"/>
    <path class="cls-3" d="M2418.25,1136.15s-89.62-69.2-526.77-81.45l-164.16,4.63c99.24-82.98,245.9,8.22,107.77,17.17-138.13,8.95-145.07-59.62-120-74.02,25.07-14.4,59.73,4.8,60.8,35.73,1.07,30.93-137.59,21.85-137.59,21.85-146.23-2.81-315.21-1.45-481.08,10.15-457.6,32-351.14,30.76-316.48,35.56,164.61,22.79,175.05,182.46,88.65,139.26-70.01-35.01-78.52-107.06-79.23-133.13-.13-4.77-5-7.93-9.42-6.13-91.4,37.17-67.84,120.08-57.98,145.61,1.6,4.14,6.67,5.65,10.28,3.08,17.14-12.17,52.8-74.85,57.11-142.56"/>
    <path class="cls-3" d="M256.13,78.6c4.72-4.74,39.22-12.82,36.12-.87-.56,2.17-2.1,3.92-4.08,4.98-22.3,11.92-65.99,2.41-92.45,2.64-51.72,9.2-15.61,66.4,1.7,93.7,14.64,22.47,33.07,43.17,51.18,47.95,50.44,4.05,97.15-42.76,89.49-106.87-2.78-23.04-15.43-50.88-41.23-51.69-20.6-.81-45.13,4.91-63.24,15.46-14.54,9.13-15.67,32.13,1.47,39.74,13.52,5.38,28.89,2.02,42.52-1.82,30.12-6.14,79.24-36.37,45.16-66.84-5.5-5.42-12-8.48-19.57-9.81-24.76-9.43-131.39,6.36-72.7,49.15,50.21,36.01,86.56,83.43,38.83,137.03-53.39,39.71,28.88-126.9,70.99-127.46,52.59-12.14,34.67,62.73,17.98,88.44-12.74,20.03-35.41,34.15-59.2,37.15-13.48.56-47,8.69-44,23.86,23.38-6.02,36.43-42.93,60.87-13.85,4.71,4.49,12.63,11.79,13.99,16.49-11.96,4.98-28.03-23.68-39.56-20.28-9.98,1.63-10.82,50.02-.17,40.48,3.67-6.66,3.72-38.72,3.03-45.35,7.08,93.06,4.43,208.63.85,360.82-11.97,243.68-28.86-95.33,72.71-200.29,8.51-8.79,14.49-14.59,19.57-17.59,15.01-8.84,19.09,5.71,14.18,19.01-7.43,20.12-33.3,47.48-57.54,47.21-16.84,3.43-17.3-12.26-19.44-25.16-1.31-7.87-4.08-23.66-2.16-32.83.83-3.96,8.45-4.3,9.72-.46,5.29,15.97,6.27,57.54.5,74.1-9.23,20.04-33.73,69.23-37.22,118.55-7.09,100.2-54.46,443.96,96.9,482.64,40.61,10.38,337.63,43.59,449.41,48.98"/>
    <path class="cls-3" d="M1085.25,1075.31s39.98,4.51,48.78-45.89c0,0-26.97,60.46,23.2,40.8,59.2-23.2,28.8-93.6,28.8-93.6,0,0,3.43,91.34,27.32,90.06,23.88-1.28,62.28,43.25,37.48,90.59,0,0,54.13-120.39,30.13-148.39s44.28,52.86,44.28,52.86"/>
    <path class="cls-3" d="M698,1093.73s-53.57-12.31-52.94-77.24c0,0-1.83,84.13-27.43,66.13-45.73-32.15-52.8-77.6-25.69-116.05.33-.47.96.2.96.2-.95,16.47-6.56,93.52-27.9,92.38-23.88-1.28-66.01,8.53-41.21,55.87,0,0-57.82-101.01-25.67-119.06,18.07-10.14-48.3,68.63-48.3,68.63"/>
    <path class="cls-3" d="M1416.41,1058.82s24.01-1.4,19.21,27.4c-4.8,28.8,4.8-56.8,23.2-56.8,2,0-34.4,37.6-52.8,44.8s28.53-12.98,7.73-14.63"/>
    <path class="cls-3" d="M1526.37,1057.11s-34.8,26.86-34,39.66c.8,12.8-5.6-31.28,7.2-37.84s-20.8-42.16-20.8-42.16c0,0,19.6,39.52,37.6,41.16"/>
    <path class="cls-2" d="M282.34,794.34s-140.46-101.27-84.98-119.3c61.28-19.91-4.88,40.27,58.3,98.7,0,0-40.95-55.14-81.54-37.44s1.03,45.21,81.54,37.44"/>
  </g>
</svg>