<?xml version="1.0" encoding="UTF-8"?>
<svg id="Layer_2" data-name="Layer 2" xmlns="http://www.w3.org/2000/svg" viewBox="0 0 1924.22 278.65">
  <defs>
    <style>
      .cls-1 {
        fill: none;
        stroke: #fff;
        stroke-miterlimit: 10;
      }
    </style>
  </defs>
  <g id="Layer_1-2" data-name="Layer 1">
    <path class="cls-1" d="M710.47,173.58s40.12-2.99,47,47.71c0,0-24.66-61.44,24.73-39.89,58.28,25.43,25.23,94.62,25.23,94.62,0,0,6.89-91.15,30.71-88.96s63.88-40.86,40.89-89.11c0,0,49.53,122.36,24.49,149.43-25.04,27.07,46.25-51.14,46.25-51.14"/>
    <path class="cls-1" d="M.07,92.37s921,129.2,1156.2,107.8,291.2-90.2,552-66.2,211.8,6.4,211.8,6.4"/>
    <path class="cls-1" d="M396.8,143.42s216.27,62.55,152.27,121.75-142.4-126.4-147.2-130.4"/>
    <path class="cls-1" d="M411.95,153.75s6.72,82.62-58.88,91.42,53.96-100.53,66.38-99.06"/>
    <path class="cls-1" d="M1592.17,130.86s-133.71-59.35-69.71-118.55,59.84,123.2,64.64,127.2"/>
    <path class="cls-1" d="M1596.05,129.6s-6.72-82.62,58.88-91.42-64.5,92.71-76.93,91.24"/>
    <path class="cls-1" d="M471.4,152.17s24.83.19,41.66-31.06c.54-1.01,1.08-2.06,1.61-3.13,0,0-8.4,36.85,0,39.12s32.16,7.49,36.02,25.51c.07.32.13.64.18.96,0,0-4.87-17.35,6.06-21.77"/>
    <path class="cls-1" d="M1677.32,131.49s20.81,21.15,34.68,21.68c0,0-22.41-12.5-17.34-20.38"/>
    <path class="cls-1" d="M1698.26,133.09s39.88,3.55,39.88,13.15c0,0-.53-15.47,10.67-21.87,0,0-8.03,12.54,2.61,13.44"/>
    <path class="cls-1" d="M1263.73,185.63s28.94,7.55,30.94,21.55c0,0-19.6-20,2-48.4,0,0-9.2,25.6,6.4,31.2,0,0-3.6-6.24,0-12.12"/>
  </g>
</svg>