<?xml version="1.0" encoding="UTF-8"?>
<svg id="Layer_2" data-name="Layer 2" xmlns="http://www.w3.org/2000/svg" viewBox="0 0 1920.44 290.33">
  <defs>
    <style>
      .cls-1 {
        fill: none;
        stroke: #fff;
        stroke-miterlimit: 10;
      }
    </style>
  </defs>
  <g id="Layer_1-2" data-name="Layer 1">
    <path class="cls-1" d="M1240.82,146c4.31,67.71,39.98,130.39,57.11,142.56,3.62,2.57,8.69,1.05,10.28-3.08,9.86-25.53,33.43-108.44-57.98-145.61-4.42-1.8-9.29,1.36-9.42,6.13-.71,26.07-9.22,98.12-79.23,133.13-86.4,43.2-75.96-116.47,88.65-139.26,34.67-4.8,141.12-3.56-316.48-35.56-165.87-11.6-334.85-12.96-481.08-10.15,0,0-138.65,9.08-137.59-21.85s35.73-50.13,60.8-35.73c25.07,14.4,18.13,82.97-120,74.02s8.53-100.15,107.77-17.17l-164.16-4.63C51.63,100.05.23,126.24.23,126.24"/>
    <path class="cls-1" d="M1920.23,25.29c-158.4,76.36-558.22,109.2-669.99,114.59"/>
    <path class="cls-1" d="M1005.74,109.41s-39.98,4.51-48.78-45.89c0,0,26.97,60.46-23.2,40.8-59.2-23.2-28.8-93.6-28.8-93.6,0,0-3.43,91.34-27.32,90.06-23.88-1.28-62.28,43.25-37.48,90.59,0,0-54.13-120.39-30.13-148.39s-44.28,52.86-44.28,52.86"/>
    <path class="cls-1" d="M1392.99,127.83s53.57-12.31,52.94-77.24c0,0,1.83,84.13,27.43,66.13,45.73-32.15,52.8-77.6,25.69-116.05-.33-.47-.96.2-.96.2.95,16.47,6.56,93.52,27.9,92.38,23.88-1.28,66.01,8.53,41.21,55.87,0,0,57.82-101.01,25.67-119.06-18.07-10.14,48.3,68.63,48.3,68.63"/>
    <path class="cls-1" d="M674.58,92.92s-24.01-1.4-19.21,27.4-4.8-56.8-23.2-56.8c-2,0,34.4,37.6,52.8,44.8,18.4,7.2-28.53-12.98-7.73-14.63"/>
    <path class="cls-1" d="M564.62,91.21s34.8,26.86,34,39.66,5.6-31.28-7.2-37.84c-12.8-6.56,20.8-42.16,20.8-42.16,0,0-19.6,39.52-37.6,41.16"/>
  </g>
</svg>