<?xml version="1.0" encoding="UTF-8"?>
<svg id="Layer_2" data-name="Layer 2" xmlns="http://www.w3.org/2000/svg" viewBox="0 0 1920.1 333.95">
  <defs>
    <style>
      .cls-1, .cls-2 {
        fill: none;
        stroke: #fff;
        stroke-miterlimit: 10;
      }

      .cls-2 {
        stroke-linecap: round;
      }
    </style>
  </defs>
  <g id="Layer_1-2" data-name="Layer 1">
    <path class="cls-1" d="M1281.23,122.01s-40.12,2.99-47-47.71c0,0,24.66,61.44-24.73,39.89-58.28-25.43-25.23-94.62-25.23-94.62,0,0-6.89,91.15-30.71,88.96s-63.88,40.86-40.89,89.11c0,0-42.34-117.16-24.49-149.43,23.61-42.67-59.36,84.87-59.36,84.87"/>
    <path class="cls-1" d="M1920.04,158.85s-782.13-89.03-1124.26,13.96c-226.15,68.07-352.24-45.3-583.94-55.56C22.99,108.89.04,110.85.04,110.85"/>
    <path class="cls-1" d="M1527.49,133.9s-216.27-62.55-152.27-121.75c64-59.2,142.4,126.4,147.2,130.4"/>
    <path class="cls-1" d="M1515.09,129.97s-6.72-82.62,58.88-91.42c65.6-8.8-53.96,100.53-66.38,99.06"/>
    <path class="cls-1" d="M1418.22,123.34s-24.83-.19-41.66,31.06c-.54,1.01-1.08,2.06-1.61,3.13,0,0,8.4-36.85,0-39.12-8.26-2.24-32.16-7.49-36.02-25.51-.07-.32-.13-.64-.18-.96,0,0-5.63,26.88-16.57,31.3"/>
    <path class="cls-1" d="M242.79,119.73s-20.81-21.15-34.68-21.68c0,0,22.41,12.5,17.34,20.38"/>
    <path class="cls-1" d="M221.86,118.13s-39.88-3.55-39.88-13.15c0,0,.53,15.47-10.67,21.87,0,0,8.03-12.54-2.61-13.44"/>
    <path class="cls-1" d="M777.61,179.09s-28.94-7.55-30.94-21.55c0,0,19.6,20-2,48.4,0,0,9.2-25.6-6.4-31.2,0,0,3.6,6.24,0,12.12"/>
    <path class="cls-2" d="M373.44,302.56c-5.55,1.61-35-6.72-27.67-14.45,1.33-1.4,3.23-2.09,5.16-2.06,21.84.32,50.88,25.78,70.98,36.68,42.94,14.68,39.58-43.66,37.91-71.53-1.67-23.11-6.94-46.47-18.63-57.65-36.43-24.16-91.31-8.32-112.34,43.34-7.53,18.58-9.62,44.91,9.54,56.31,15.23,9.23,36.17,15.17,54.26,14.77,14.81-.82,25.28-17.73,15.51-30.65-7.97-9.72-20.99-13.61-32.9-16.41-25.34-7.96-75.1-5.66-62.09,31.63,1.89,6.4,5.52,11.43,10.69,15.6,14.77,17.48,101.97,50.16,75.5-6.74-22.89-48.22-30.52-99.27,27.97-119.81,56.97-7.68-74.91,83.83-106.98,66.64-44.83-12.82.03-61.92,23.41-74.36,18.01-9.81,41.05-11,60.28-3.31,10.42,5.21,39.16,13.09,43.24.38-20.19-5.23-45.49,17.21-51.8-14.99-1.68-5.37-4.61-14.19-3.68-18.32,11.12,1.24,11.28,29.63,21.42,31.87,8.23,2.94,29.1-33.28,17.06-30.52-5.56,3.5-19.01,27.71-21.26,33.01,0,0,14.18-18.12,59.75-6.86"/>
  </g>
</svg>