<?xml version="1.0" encoding="UTF-8"?>
<svg id="Layer_2" data-name="Layer 2" xmlns="http://www.w3.org/2000/svg" viewBox="0 0 2221.69 5603.21">
  <defs>
    <style>
      .cls-1 {
        stroke-linecap: round;
      }

      .cls-1, .cls-2 {
        fill: none;
        stroke: #fff;
        stroke-miterlimit: 10;
        stroke-width: 2px;
      }
    </style>
  </defs>
  <g id="Layer_1-2" data-name="Layer 1">
    <g>
      <path class="cls-1" d="M84.84,583.67c17.57-62.4,76.44-191.02,92.89-226.73,4.97-14.27,4.13-50.09-.43-63.85-1.1-3.31-7.66-3.01-8.38.4-1.65,7.9.73,21.51,1.86,28.29,1.85,11.11,2.25,24.64,16.75,21.68,20.89.23,43.18-23.35,49.58-40.68,4.23-11.46.71-23.99-12.22-16.38-4.38,2.58-9.53,7.58-16.87,15.16-87.53,90.45-72.97,382.57-62.66,172.59,3.08-131.14,5.37-230.73-.73-310.92.59,5.72.55,33.34-2.61,39.08-9.18,8.23-8.46-33.47.15-34.88,9.93-2.93,23.78,21.76,34.09,17.47-1.18-4.06-8-10.34-12.06-14.21-21.05-25.06-32.3,6.75-52.45,11.93-2.58-13.07,26.31-20.07,37.92-20.56,20.5-2.58,40.03-14.75,51.01-32.01,14.39-22.15,29.83-86.67-15.49-76.21-36.29.49-107.18,144.05-61.18,109.84,41.13-46.18,9.81-87.04-33.46-118.07C39.99,8.74,131.87-4.86,153.21,3.27c6.52,1.15,12.13,3.79,16.86,8.46,29.36,26.25-12.96,52.3-38.92,57.59-11.74,3.31-24.99,6.2-36.64,1.57-14.77-6.55-13.79-26.37-1.26-34.24,15.6-9.09,36.74-14.02,54.49-13.32,22.23.69,33.13,24.68,35.53,44.54,6.6,55.25-33.65,95.58-77.11,92.09-15.6-4.12-31.49-21.96-44.1-41.32-14.92-23.52-46.03-72.81-1.46-80.74,22.83-.19,60.54,8.02,79.74-2.31,1.65-.89,2.94-2.39,3.43-4.2,2.78-10.37-27.04-3.39-31.11.7"/>
      <g>
        <path class="cls-2" d="M84.84,583.67c-42.23,136-78.51,217.98-1.71,313.98,53.49,66.86,43.16,86.89,31.97,92.9-4.51,2.42-9.83,2.74-14.73,1.27-8.4-2.52-45.69-24.16-39.22-31.08,3.81-4.08,48.08-9.66,61.33,28.53,2.33,6.7-3.16.23,0,0,76.53-5.6,46.93-64.24,3.47-17.87-16.49,17.6,23.07,118.27,37.07,141.87,0,0,240,688,1315.2,419.2s883.2,1036.8,57.6,1228.8S-9.8,3052.47,57.4,3734.07s732.88,1158.4,1345.64,1225.6,817.65,643.2,817.65,643.2"/>
        <polyline class="cls-2" points="38.81 793.64 .24 788.82 39.39 798.52"/>
        <polyline class="cls-2" points="46.67 829.38 17.71 846.18 47.47 837.78"/>
        <polyline class="cls-2" points="42.03 815.05 69.41 819.66 43.74 820.68"/>
        <polyline class="cls-2" points="61.14 865.3 104.72 862.45 66.21 873.88"/>
        <polyline class="cls-2" points="72.7 883.72 64.95 891.25 75.02 886.12"/>
        <polyline class="cls-2" points="80.64 894.41 69.99 921.25 83.12 897.65 78.37 891.25 98.32 891.25 81.28 895.28"/>
        <polyline class="cls-2" points="98.32 916.85 117.52 916.85 99.87 921.25"/>
        <polyline class="cls-2" points="102.4 923.65 102.4 945.25 106.53 929.97"/>
      </g>
    </g>
  </g>
</svg>