<?xml version="1.0" encoding="UTF-8"?>
<svg id="Layer_2" data-name="Layer 2" xmlns="http://www.w3.org/2000/svg" viewBox="0 0 1947.5 1216.2">
  <defs>
    <style>
      .cls-1 {
        fill: #1a0a0e;
      }

      .cls-2 {
        fill: none;
        stroke: #fff;
        stroke-linecap: round;
        stroke-miterlimit: 10;
        stroke-width: 3px;
      }
    </style>
  </defs>
  <g id="Layer_1-2" data-name="Layer 1">
    <path class="cls-1" d="M57.37,862.14c5.5,13.56-20.17,95.63,188.99,147.06,0,0,29.61,13.9,414.91,51.44l30.24,2.45,2.66-4.22s26.44-4.29,65.56-7.65c39.12-3.36,276.52-21,276.52-21,0,0,246.19-15.21,306.9-11.63l70.14-.21,73.6.61,39.17.74s49.81,3.11,70.42.38,93.61-3.42,93.61-3.42l87.05-2.46,43.37,3.73s86.27,4.93,126.67,22.73v31.67l-1290.23,26.33H24.6l-24.6-.31V239.17l182.08,6.33-.65,237.76-33.38,63.44-25.41,50.08-15.31,33-23.83,62.76-14.94,59.49-8.88,54.63-2.96,31.7.65,23.78Z"/>
    <path class="cls-2" d="M735.94,1070.87c-4.31,67.71-39.98,130.39-57.11,142.56-3.62,2.57-8.69,1.05-10.28-3.08-9.86-25.53-33.43-108.44,57.98-145.61,4.42-1.8,9.29,1.36,9.42,6.13.71,26.07,9.22,98.12,79.23,133.13,86.4,43.2,75.96-116.47-88.65-139.26-34.67-4.8-141.12-3.56,316.48-35.56,165.87-11.6,334.85-12.96,481.08-10.15,0,0,138.65,9.08,137.59-21.85-1.07-30.93-35.73-50.13-60.8-35.73s-18.13,82.97,120,74.02c138.13-8.95-8.53-100.15-107.77-17.17l164.16-4.63c147.88,11.25,168.74,26.12,168.74,26.12"/>
    <path class="cls-2" d="M141.9,37.57c4.72-4.74,39.22-12.82,36.12-.87-.56,2.17-2.1,3.92-4.08,4.98-22.3,11.92-65.99,2.41-92.45,2.64-51.72,9.2-15.61,66.4,1.7,93.7,14.64,22.47,33.07,43.17,51.18,47.95,50.44,4.05,97.15-42.76,89.49-106.87-2.78-23.04-15.43-50.88-41.23-51.69-20.6-.81-45.13,4.91-63.24,15.46-14.54,9.13-15.67,32.13,1.47,39.74,13.52,5.38,28.89,2.02,42.52-1.82,30.12-6.14,79.24-36.37,45.16-66.84-5.5-5.42-12-8.48-19.57-9.81-24.76-9.43-131.39,6.36-72.7,49.15,50.21,36.01,86.56,83.43,38.83,137.03-53.39,39.71,28.88-126.9,70.99-127.46,52.59-12.14,34.67,62.73,17.98,88.44-12.74,20.03-35.41,34.15-59.2,37.15-13.48.56-47,8.69-44,23.86,23.38-6.02,36.43-42.93,60.87-13.85,4.71,4.49,12.63,11.79,13.99,16.49-11.96,4.98-28.03-23.68-39.56-20.28-9.98,1.63-10.82,50.02-.17,40.48,3.67-6.66,3.72-38.72,3.03-45.35,7.08,93.06,4.43,208.63.85,360.82-11.97,243.68-28.86-95.33,72.71-200.29,8.51-8.79,14.49-14.59,19.57-17.59,15.01-8.84,19.09,5.71,14.18,19.01-7.43,20.12-33.3,47.48-57.54,47.21-16.84,3.43-17.3-12.26-19.44-25.16-1.31-7.87-4.08-23.66-2.16-32.83.83-3.96,8.45-4.3,9.72-.46,5.29,15.97,6.27,57.54.5,74.1-9.23,20.04-29.8,56.37-52.68,100.21-43.75,83.82-81.66,152.2-97.65,245.39l-7.42,46.49c-2.93,18.34-3.83,36.97-2.31,55.48,5.7,69.03,40.66,109.16,192.03,147.84,40.61,10.38,365.35,49.37,477.12,54.76"/>
    <path class="cls-2" d="M971.02,1034.28s39.98,4.51,48.78-45.89c0,0-26.97,60.46,23.2,40.8,59.2-23.2,28.8-93.6,28.8-93.6,0,0,3.43,91.34,27.32,90.06s62.28,43.25,37.48,90.59c0,0,54.13-120.39,30.13-148.39s44.28,52.86,44.28,52.86"/>
    <path class="cls-2" d="M583.76,1052.7s-53.57-12.31-52.94-77.24c0,0-1.83,84.13-27.43,66.13-45.73-32.15-52.8-77.6-25.69-116.05.33-.47.96.2.96.2-.95,16.47-6.56,93.52-27.9,92.38-23.88-1.28-66.01,8.53-41.21,55.87,0,0-57.82-101.01-25.67-119.06,18.07-10.14-48.3,68.63-48.3,68.63"/>
    <path class="cls-2" d="M1302.18,1017.79s24.01-1.4,19.21,27.4,4.8-56.8,23.2-56.8c2,0-34.4,37.6-52.8,44.8-18.4,7.2,28.53-12.98,7.73-14.63"/>
    <path class="cls-2" d="M1412.13,1016.08s-34.8,26.86-34,39.66c.8,12.8-5.6-31.28,7.2-37.84s-20.8-42.16-20.8-42.16c0,0,19.6,39.52,37.6,41.16"/>
  </g>
</svg>