<?xml version="1.0" encoding="UTF-8"?>
<svg id="Layer_2" data-name="Layer 2" xmlns="http://www.w3.org/2000/svg" viewBox="0 0 1922.8 1503.98">
  <defs>
    <style>
      .cls-1 {
        fill: #1a0a0e;
      }

      .cls-2 {
        fill: none;
        stroke: #fff;
        stroke-linecap: round;
        stroke-miterlimit: 10;
        stroke-width: 3px;
      }
    </style>
  </defs>
  <g id="Layer_1-2" data-name="Layer 1">
    <path class="cls-1" d="M1795.93,1305.18l-43.37-3.73-87.05,2.46s-73.01.7-93.61,3.42-70.42-.38-70.42-.38l-39.17-.74-73.6-.61-70.14.21c-60.72-3.58-306.9,11.63-306.9,11.63,0,0-237.4,17.63-276.52,21-39.12,3.36-65.56,7.65-65.56,7.65l-2.66,4.22-30.24-2.45c-385.31-37.54-418.11-53.76-418.11-53.76C2.56,1238.9,28.58,1059.91,33.38,973.51c2.89-52.03,17.69-240.38,32-323.74,13.78-80.3,46.45-139.22,84.15-211.45l14.38-27.16.68-201.3L0,207.5v1178.4h632.37l1290.23-26.33v-31.67c-40.4-17.8-126.67-22.73-126.67-22.73Z"/>
    <g>
      <path class="cls-2" d="M711.24,1358.66c-4.31,67.71-39.98,130.39-57.11,142.56-3.62,2.57-8.69,1.05-10.28-3.08-9.86-25.53-33.43-108.44,57.98-145.61,4.42-1.8,9.29,1.36,9.42,6.13.71,26.07,9.22,98.12,79.23,133.13,86.4,43.2,75.96-116.47-88.65-139.26-34.67-4.8-141.12-3.56,316.48-35.56,165.87-11.6,334.85-12.96,481.08-10.15,0,0,138.65,9.08,137.59-21.85s-35.73-50.13-60.8-35.73-18.13,82.97,120,74.02-8.53-100.15-107.77-17.17l164.16-4.63c147.88,11.25,168.74,26.12,168.74,26.12"/>
      <path class="cls-2" d="M131.14,32.58c4.08-4.09,33.89-11.07,31.11-.7-.49,1.81-1.78,3.31-3.43,4.2-19.19,10.33-56.9,2.12-79.74,2.31-44.57,7.93-13.46,57.22,1.46,80.74,12.61,19.36,28.5,37.2,44.1,41.32,43.46,3.49,83.71-36.85,77.11-92.09-2.4-19.85-13.29-43.85-35.53-44.54-17.75-.7-38.89,4.23-54.49,13.32-12.53,7.87-13.5,27.69,1.26,34.24,11.65,4.64,24.9,1.74,36.64-1.57,25.96-5.29,68.28-31.34,38.92-57.59-4.74-4.67-10.34-7.3-16.86-8.46-21.34-8.12-113.22,5.48-62.64,42.35,43.27,31.03,74.59,71.89,33.46,118.07-46.01,34.22,24.88-109.35,61.18-109.84,45.32-10.46,29.88,54.06,15.49,76.21-10.98,17.26-30.51,29.43-51.01,32.01-11.61.48-40.5,7.49-37.92,20.56,20.14-5.19,31.39-36.99,52.45-11.93,4.06,3.87,10.88,10.16,12.06,14.21-10.31,4.29-24.16-20.4-34.09-17.47-8.6,1.41-9.33,43.1-.15,34.88,3.16-5.74,3.2-33.36,2.61-39.08,6.1,80.19,3.82,179.77.73,310.92-10.31,209.98-24.87-82.15,62.66-172.59,7.33-7.58,12.49-12.58,16.87-15.16,12.93-7.62,16.45,4.92,12.22,16.38-6.4,17.34-28.7,40.91-49.58,40.68-14.51,2.96-14.91-10.57-16.75-21.68-1.13-6.78-3.51-20.39-1.86-28.29.71-3.41,7.28-3.71,8.38-.4,4.56,13.76,5.4,49.58.43,63.85-7.95,17.27-25.68,48.58-45.4,86.35-37.7,72.23-70.37,131.15-84.15,211.45-14.31,83.37-29.11,271.71-32,323.74-4.8,86.4-25.98,263.59,190.02,318.79,40.61,10.38,365.35,49.37,477.12,54.76"/>
      <path class="cls-2" d="M946.32,1322.06s39.98,4.51,48.78-45.89c0,0-26.97,60.46,23.2,40.8,59.2-23.2,28.8-93.6,28.8-93.6,0,0,3.43,91.34,27.32,90.06s62.28,43.25,37.48,90.59c0,0,54.13-120.39,30.13-148.39s44.28,52.86,44.28,52.86"/>
      <path class="cls-2" d="M559.07,1340.48s-53.57-12.31-52.94-77.24c0,0-1.83,84.13-27.43,66.13-45.73-32.15-52.8-77.6-25.69-116.05.33-.47.96.2.96.2-.95,16.47-6.56,93.52-27.9,92.38-23.88-1.28-66.01,8.53-41.21,55.87,0,0-57.82-101.01-25.67-119.06,18.07-10.14-48.3,68.63-48.3,68.63"/>
      <path class="cls-2" d="M1277.49,1305.57s24.01-1.4,19.21,27.4,4.8-56.8,23.2-56.8c2,0-34.4,37.6-52.8,44.8s28.53-12.98,7.73-14.63"/>
      <path class="cls-2" d="M1387.44,1303.86s-34.8,26.86-34,39.66-5.6-31.28,7.2-37.84-20.8-42.16-20.8-42.16c0,0,19.6,39.52,37.6,41.16"/>
    </g>
  </g>
</svg>