<?xml version="1.0" encoding="UTF-8"?>
<svg id="Layer_2" data-name="Layer 2" xmlns="http://www.w3.org/2000/svg" viewBox="0 0 236.61 638.38">
  <defs>
    <style>
      .cls-1 {
        fill: none;
        stroke: #fff;
        stroke-linecap: round;
        stroke-miterlimit: 10;
        stroke-width: 3px;
      }
    </style>
  </defs>
  <g id="Layer_1-2" data-name="Layer 1">
    <path class="cls-1" d="M88.68,37.57c4.72-4.74,39.22-12.82,36.12-.87-.56,2.17-2.1,3.92-4.08,4.98-22.3,11.92-65.99,2.41-92.45,2.64-51.72,9.2-15.61,66.4,1.7,93.7,14.64,22.47,33.07,43.17,51.18,47.95,50.44,4.05,97.15-42.76,89.49-106.87-2.78-23.04-15.43-50.88-41.23-51.69-20.6-.81-45.13,4.91-63.24,15.46-14.54,9.13-15.67,32.13,1.47,39.74,13.52,5.38,28.89,2.02,42.52-1.82,30.12-6.14,79.24-36.37,45.16-66.84-5.5-5.42-12-8.48-19.57-9.81C110.99-5.3,4.36,10.49,63.06,53.28c50.21,36.01,86.56,83.43,38.83,137.03-53.39,39.71,28.88-126.9,70.99-127.46,52.59-12.14,34.67,62.73,17.98,88.44-12.74,20.03-35.41,34.15-59.2,37.15-13.48.56-47,8.69-44,23.86,23.38-6.02,36.43-42.93,60.87-13.85,4.71,4.49,12.63,11.79,13.99,16.49-11.96,4.98-28.03-23.68-39.56-20.28-9.98,1.63-10.82,50.02-.17,40.48,3.67-6.66,3.72-38.72,3.03-45.35,7.08,93.06,4.43,208.63.85,360.82-11.97,243.68-28.86-95.33,72.71-200.29,8.51-8.79,14.49-14.59,19.57-17.59,15.01-8.84,19.09,5.71,14.18,19.01-7.43,20.12-33.3,47.48-57.54,47.21-16.84,3.43-17.3-12.26-19.44-25.16-1.31-7.87-4.08-23.66-2.16-32.83.83-3.96,8.45-4.3,9.72-.46,5.29,15.97,6.27,57.54.5,74.1-9.23,20.04-33.73,69.23-37.22,118.55"/>
  </g>
</svg>